<?xml version="1.0" encoding="utf-8"?>
<!-- Generator: Adobe Illustrator 22.1.0, SVG Export Plug-In . SVG Version: 6.00 Build 0)  -->
<svg version="1.1" id="Laag_1" focusable="false" xmlns="http://www.w3.org/2000/svg" xmlns:xlink="http://www.w3.org/1999/xlink"
	 x="0px" y="0px" viewBox="0 0 640 512" style="enable-background:new 0 0 640 512;" xml:space="preserve">
<style type="text/css">
	.st0{fill:#F7F248;}
	.st1{fill:#D4D4D4;}
</style>
<path class="st0" d="M144.8,303.1c-43.7-43.7-43.7-114.7,0-158.3c43.7-43.7,114.7-43.7,158.4,0c9.7,9.7,16.9,20.9,22.3,32.7
	c9.8-3.7,20.1-6,30.7-7.5L386,81.1c4-11.9-7.3-23.1-19.2-19.2L279,91.2L237.5,8.4C232-2.8,216-2.8,210.4,8.4L169,91.2L81.1,61.9
	C69.3,58,58,69.3,61.9,81.1l29.3,87.8L8.4,210.4c-11.2,5.6-11.2,21.5,0,27.1l82.8,41.4l-29.3,87.8c-4,11.9,7.3,23.1,19.2,19.2
	l76.1-25.3c6.1-12.4,14-23.7,23.6-33.5C167.7,321.7,155.4,313.7,144.8,303.1L144.8,303.1z M140,223.9c0,40.8,29.3,74.8,67.9,82.3
	c8-4.7,16.3-8.8,25.2-11.7c5.4-44.3,31-82.5,67.4-105C287.3,160.4,258,140,224,140C177.7,140,140,177.6,140,223.9L140,223.9z"/>
<g id="XMLID_1_">
	<g>
		<path class="st1" d="M575.2,325.7c37.6,13,64.8,48.3,64.8,90.4c0,53-43,96-96,96H272c-53,0-96-43-96-96
			c0-50.6,39.3-91.6,88.9-95.3c-0.2-2.9-0.9-5.7-0.9-8.7c0-61.9,50.2-112,112-112c45.4,0,84.3,27.2,101.9,66
			c9.9-6.2,21.5-10,34.1-10c35.3,0,64,28.7,64,64C576,322,575.4,323.8,575.2,325.7z"/>
	</g>
	<g>
	</g>
</g>
</svg>
