<?xml version="1.0" encoding="utf-8"?>
<!-- Generator: Adobe Illustrator 22.1.0, SVG Export Plug-In . SVG Version: 6.00 Build 0)  -->
<svg version="1.1" id="Laag_1" focusable="false" xmlns="http://www.w3.org/2000/svg" xmlns:xlink="http://www.w3.org/1999/xlink"
	 x="0px" y="0px" viewBox="0 0 576 512" style="enable-background:new 0 0 576 512;" xml:space="preserve">
<style type="text/css">
	.st0{fill:#FFE8AA;}
	.st1{fill:#C8C8C8;}
</style>
<path class="st0" d="M565.3,298.4c-93.1,17.7-178.5-53.7-178.5-147.7c0-54.2,29-104,76.1-130.8c7.3-4.1,5.4-15.1-2.8-16.7
	C448.4,1.1,436.7,0,425,0C319.1,0,233.1,85.9,233.1,192c0,8.5,0.7,16.8,1.8,25c5.9,4.3,11.6,8.9,16.7,14.2
	c11.4-4.7,23.7-7.2,36.4-7.2c52.9,0,96,43.1,96,96c0,3.6-0.2,7.2-0.6,10.7c23.6,10.8,42.4,29.5,53.5,52.6
	c54.4-3.4,103.7-29.3,137.1-70.4C579.3,306.4,573.5,296.8,565.3,298.4z"/>
<g id="XMLID_1_">
	<g>
		<path class="st1" d="M342.8,352.7c40.9,3.5,73.2,37.4,73.2,79.3c0,44.2-35.8,80-80,80H96c-53,0-96-43-96-96
			c0-41.9,27.1-77.2,64.6-90.3c-0.1-1.9-0.6-3.7-0.6-5.7c0-53,43-96,96-96c36.2,0,67.4,20.3,83.7,49.9c11.5-11,27.1-17.9,44.3-17.9
			c35.3,0,64,28.7,64,64C352,332,348.5,343.1,342.8,352.7z"/>
	</g>
	<g>
	</g>
</g>
</svg>
