<?xml version="1.0" encoding="utf-8"?>
<!-- Generator: Adobe Illustrator 22.1.0, SVG Export Plug-In . SVG Version: 6.00 Build 0)  -->
<svg version="1.1" id="Laag_1" focusable="false" xmlns="http://www.w3.org/2000/svg" xmlns:xlink="http://www.w3.org/1999/xlink"
	 x="0px" y="0px" viewBox="0 0 512 512" style="enable-background:new 0 0 512 512;" xml:space="preserve">
<style type="text/css">
	.st0{fill:#8A8A8A;}
	.st1{fill:#0088BF;}
</style>
<g id="XMLID_2_">
	<g>
		<path class="st0" d="M416,128c53,0,96,43,96,96s-43,96-96,96H96c-53,0-96-43-96-96c0-42.5,27.8-78.2,66.1-90.8
			c-1.3-6.9-2.1-13.9-2.1-21.2C64,50.1,114.2,0,176,0c43.3,0,80.4,24.8,99,60.8C289.7,43.3,311.4,32,336,32c44.2,0,80,35.8,80,80
			c0,5.6-0.5,11-1.6,16.2C414.9,128.2,415.4,128,416,128z"/>
	</g>
	<g>
	</g>
</g>
<g id="XMLID_1_">
	<g>
		<path class="st1" d="M471.9,370.1c7.7,4.4,10.4,14.2,6,21.8l-64,112c-3,5.2-8.4,8.1-13.9,8.1c-2.7,0-5.4-0.7-7.9-2.1
			c-7.7-4.3-10.4-14.1-6-21.8l64-112C454.5,368.3,464.3,365.7,471.9,370.1z"/>
		<path class="st1" d="M375.9,370.1c7.7,4.4,10.4,14.2,6,21.8l-64,112c-3,5.2-8.4,8.1-13.9,8.1c-2.7,0-5.4-0.7-7.9-2.1
			c-7.7-4.3-10.4-14.1-6-21.8l64-112C358.5,368.3,368.3,365.7,375.9,370.1z"/>
		<path class="st1" d="M279.9,370.1c7.7,4.4,10.4,14.2,6,21.8l-64,112c-3,5.2-8.4,8.1-13.9,8.1c-2.7,0-5.4-0.7-7.9-2.1
			c-7.7-4.3-10.4-14.1-6-21.8l64-112C262.5,368.3,272.3,365.7,279.9,370.1z"/>
		<path class="st1" d="M183.9,370.1c7.7,4.4,10.4,14.2,6,21.8l-64,112c-3,5.2-8.4,8.1-13.9,8.1c-2.7,0-5.4-0.7-7.9-2.1
			c-7.7-4.3-10.4-14.1-6-21.8l64-112C166.5,368.3,176.3,365.7,183.9,370.1z"/>
		<path class="st1" d="M87.9,370.1c7.7,4.4,10.4,14.2,6,21.8l-64,112c-3,5.2-8.4,8.1-13.9,8.1c-2.7,0-5.4-0.7-7.9-2.1
			c-7.7-4.3-10.4-14.1-6-21.8l64-112C70.5,368.3,80.3,365.7,87.9,370.1z"/>
	</g>
	<g>
	</g>
</g>
</svg>
