<?xml version="1.0" encoding="utf-8"?>
<!-- Generator: Adobe Illustrator 22.1.0, SVG Export Plug-In . SVG Version: 6.00 Build 0)  -->
<svg version="1.1" id="Laag_1" focusable="false" xmlns="http://www.w3.org/2000/svg" xmlns:xlink="http://www.w3.org/1999/xlink"
	 x="0px" y="0px" viewBox="0 0 576 512" style="enable-background:new 0 0 576 512;" xml:space="preserve">
<style type="text/css">
	.st0{fill:#B2B2B2;}
	.st1{fill:#35D4FF;}
	.st2{fill:#FFFF33;}
</style>
<path class="st0" d="M510.5,225.5c-6.9-37.2-39.3-65.5-78.5-65.5c-12.3,0-23.9,3-34.3,8c-17.4-24.1-45.6-40-77.7-40
	c-53,0-96,43-96,96c0,0.5,0.2,1.1,0.2,1.6C187.6,233,160,265.2,160,304c0,44.2,35.8,80,80,80h256c44.2,0,80-35.8,80-80
	C576,264.8,547.8,232.3,510.5,225.5z"/>
<g id="XMLID_2_">
	<g>
		<path class="st1" d="M524.5,418.1c7.7,4.4,10.3,14.1,6,21.8l-36.6,64c-3,5.2-8.4,8.1-13.9,8.1c-2.7,0-5.4-0.7-7.9-2.1
			c-7.7-4.4-10.4-14.1-6-21.8l36.6-64C507.1,416.3,516.9,413.8,524.5,418.1z"/>
		<path class="st1" d="M428.5,418.1c7.7,4.4,10.3,14.1,6,21.8l-36.6,64c-3,5.2-8.4,8.1-13.9,8.1c-2.7,0-5.4-0.7-7.9-2.1
			c-7.7-4.4-10.4-14.1-6-21.8l36.6-64C411.1,416.3,420.9,413.8,428.5,418.1z"/>
		<path class="st1" d="M332.5,418.1c7.7,4.4,10.3,14.1,6,21.8l-36.6,64c-3,5.2-8.4,8.1-13.9,8.1c-2.7,0-5.4-0.7-7.9-2.1
			c-7.7-4.4-10.4-14.1-6-21.8l36.6-64C315.1,416.3,324.9,413.8,332.5,418.1z"/>
		<path class="st1" d="M236.5,418.1c7.7,4.4,10.3,14.1,6,21.8l-36.6,64c-3,5.2-8.4,8.1-13.9,8.1c-2.7,0-5.4-0.7-7.9-2.1
			c-7.7-4.4-10.4-14.1-6-21.8l36.6-64C219.1,416.3,228.9,413.8,236.5,418.1z"/>
	</g>
	<g>
	</g>
</g>
<g id="XMLID_1_">
	<g>
		<path class="st2" d="M314.4,53.1c10.2-3.4,19.9,6.2,16.5,16.4L322,96.2c-0.7,0-1.3-0.2-2-0.2c-25.6,0-49.2,7.8-69.2,20.7
			c-37.6-29.4-92.1-27.2-126.7,7.4c-37.4,37.5-37.4,98.4,0,135.8c3.1,3.1,6.6,5.6,10.2,8.3c-3.9,11.4-6.2,23.4-6.2,35.9
			c0,2.5,0.5,4.8,0.7,7.2L69.6,331c-10.2,3.3-19.9-6.3-16.5-16.5l25.1-75.3l-71-35.5c-9.6-4.8-9.6-18.5,0-23.3l71-35.5L53.1,69.6
			c-3.4-10.2,6.2-19.9,16.4-16.5l75.3,25.1l35.5-71c4.8-9.6,18.5-9.6,23.3,0l35.5,71L314.4,53.1z"/>
		<path class="st2" d="M192,128c12.4,0,24,3.7,33.8,9.9c-16.1,17.6-27.6,39.5-31.9,64c-18.2,8.3-33.5,21.3-44.8,37.2
			C136.2,227.4,128,210.7,128,192C128,156.7,156.7,128,192,128z"/>
	</g>
	<g>
	</g>
</g>
</svg>
