<?xml version="1.0" encoding="utf-8"?>
<!-- Generator: Adobe Illustrator 22.1.0, SVG Export Plug-In . SVG Version: 6.00 Build 0)  -->
<svg version="1.1" id="Laag_1" focusable="false" xmlns="http://www.w3.org/2000/svg" xmlns:xlink="http://www.w3.org/1999/xlink"
	 x="0px" y="0px" viewBox="0 0 576 512" style="enable-background:new 0 0 576 512;" xml:space="preserve">
<style type="text/css">
	.st0{fill:#FFF29A;}
	.st1{fill:#808080;}
	.st2{fill:#29ABE2;}
</style>
<g id="XMLID_1_">
	<g>
		<path class="st0" d="M568.9,223.8c6.2-1.2,10.6,6,6.4,10.8c-27,33.1-67.9,53.3-112.6,53.3c-5.2,0-10.1-1-15.2-1.5
			c-6.2-39.4-33.1-72.5-70.2-86.8c-10.7-27.9-32.2-49.8-58.9-61.7C321.7,61.2,384.9,0,462.8,0c8.9,0,17.8,0.8,26.5,2.4
			c6.2,1.1,7.6,9.4,2.1,12.5C455.8,35,433.9,72.4,433.9,113C433.9,183.5,498.5,237.1,568.9,223.8z"/>
		<path class="st1" d="M351.5,225.5c37.3,6.8,65.5,39.3,65.5,78.5c0,44.2-35.8,80-80,80H81c-44.2,0-80-35.8-80-80
			c0-38.8,27.6-71.1,64.2-78.4c0-0.5-0.2-1.1-0.2-1.6c0-53,43-96,96-96c32.1,0,60.3,15.9,77.7,40c10.4-5,22-8,34.3-8
			C312.2,160,344.6,188.3,351.5,225.5z"/>
		<path class="st2" d="M365.5,418.1c7.7,4.4,10.3,14.1,6,21.8l-36.6,64c-3,5.2-8.4,8.1-13.9,8.1c-2.7,0-5.4-0.7-7.9-2.1
			c-7.7-4.4-10.4-14.1-6-21.8l36.6-64C348.1,416.3,357.9,413.8,365.5,418.1z"/>
		<path class="st2" d="M269.5,418.1c7.7,4.4,10.3,14.1,6,21.8l-36.6,64c-3,5.2-8.4,8.1-13.9,8.1c-2.7,0-5.4-0.7-7.9-2.1
			c-7.7-4.4-10.4-14.1-6-21.8l36.6-64C252.1,416.3,261.9,413.8,269.5,418.1z"/>
		<path class="st2" d="M173.5,418.1c7.7,4.4,10.3,14.1,6,21.8l-36.6,64c-3,5.2-8.4,8.1-13.9,8.1c-2.7,0-5.4-0.7-7.9-2.1
			c-7.7-4.4-10.4-14.1-6-21.8l36.6-64C156.1,416.3,165.9,413.8,173.5,418.1z"/>
		<path class="st2" d="M77.5,418.1c7.7,4.4,10.3,14.1,6,21.8l-36.6,64c-3,5.2-8.4,8.1-13.9,8.1c-2.7,0-5.4-0.7-7.9-2.1
			c-7.7-4.4-10.4-14.1-6-21.8l36.6-64C60.1,416.3,69.9,413.8,77.5,418.1z"/>
	</g>
	<g>
	</g>
</g>
</svg>
